<svg xmlns="http://www.w3.org/2000/svg" width="31" height="32" viewBox="0 0 31 32" fill="none">
<path d="M9.04165 1.71429V7.42857C9.04165 8.37536 8.39107 9.14286 7.58852 9.14286H1.45312C0.650576 9.14286 0 8.37536 0 7.42857V1.71429C0 0.7675 0.650576 0 1.45312 0H7.58852C8.39107 0 9.04165 0.7675 9.04165 1.71429ZM20.0209 18.8571V13.1429C20.0209 12.1961 19.3703 11.4286 18.5677 11.4286H12.4323C11.6297 11.4286 10.9791 12.1961 10.9791 13.1429V18.8571C10.9791 19.8039 11.6297 20.5714 12.4323 20.5714H18.5677C19.3703 20.5714 20.0209 19.8039 20.0209 18.8571ZM21.9584 1.71429V7.42857C21.9584 8.37536 22.6089 9.14286 23.4115 9.14286H29.5469C30.3494 9.14286 31 8.37536 31 7.42857V1.71429C31 0.7675 30.3494 0 29.5469 0H23.4115C22.6089 0 21.9584 0.7675 21.9584 1.71429ZM20.0209 7.42857V1.71429C20.0209 0.7675 19.3703 0 18.5677 0H12.4323C11.6297 0 10.9791 0.7675 10.9791 1.71429V7.42857C10.9791 8.37536 11.6297 9.14286 12.4323 9.14286H18.5677C19.3703 9.14286 20.0209 8.37536 20.0209 7.42857ZM7.58852 11.4286H1.45312C0.650576 11.4286 0 12.1961 0 13.1429V18.8571C0 19.8039 0.650576 20.5714 1.45312 20.5714H7.58852C8.39107 20.5714 9.04165 19.8039 9.04165 18.8571V13.1429C9.04165 12.1961 8.39107 11.4286 7.58852 11.4286ZM0 24.5714V30.2857C0 31.2325 0.650576 32 1.45312 32H7.58852C8.39107 32 9.04165 31.2325 9.04165 30.2857V24.5714C9.04165 23.6246 8.39107 22.8571 7.58852 22.8571H1.45312C0.650576 22.8571 0 23.6246 0 24.5714ZM23.4115 20.5714H29.5469C30.3494 20.5714 31 19.8039 31 18.8571V13.1429C31 12.1961 30.3494 11.4286 29.5469 11.4286H23.4115C22.6089 11.4286 21.9584 12.1961 21.9584 13.1429V18.8571C21.9584 19.8039 22.6089 20.5714 23.4115 20.5714ZM23.4115 32H29.5469C30.3494 32 31 31.2325 31 30.2857V24.5714C31 23.6246 30.3494 22.8571 29.5469 22.8571H23.4115C22.6089 22.8571 21.9584 23.6246 21.9584 24.5714V30.2857C21.9584 31.2325 22.6089 32 23.4115 32ZM10.9791 24.5714V30.2857C10.9791 31.2325 11.6297 32 12.4323 32H18.5677C19.3702 32 20.0208 31.2325 20.0208 30.2857V24.5714C20.0208 23.6246 19.3702 22.8571 18.5677 22.8571H12.4323C11.6297 22.8571 10.9791 23.6246 10.9791 24.5714Z" fill="#5F6368"/>
</svg>