<svg xmlns="http://www.w3.org/2000/svg" width="55" height="56" viewBox="0 0 55 56" fill="none">
<path d="M27.5 0C12.3085 0 0 12.5323 0 28C0 43.4677 12.3085 56 27.5 56C42.6915 56 55 43.4677 55 28C55 12.5323 42.6915 0 27.5 0ZM27.5 10.8387C32.8891 10.8387 37.2581 15.2871 37.2581 20.7742C37.2581 26.2613 32.8891 30.7097 27.5 30.7097C22.1109 30.7097 17.7419 26.2613 17.7419 20.7742C17.7419 15.2871 22.1109 10.8387 27.5 10.8387ZM27.5 49.6774C20.9909 49.6774 15.1583 46.6742 11.255 41.9774C13.3397 37.9806 17.4204 35.2258 22.1774 35.2258C22.4435 35.2258 22.7097 35.271 22.9647 35.35C24.4062 35.8242 25.9143 36.129 27.5 36.129C29.0857 36.129 30.6048 35.8242 32.0353 35.35C32.2903 35.271 32.5565 35.2258 32.8226 35.2258C37.5796 35.2258 41.6603 37.9806 43.745 41.9774C39.8417 46.6742 34.0091 49.6774 27.5 49.6774Z" fill="#FDD65E" fill-opacity="0.5"/>
</svg>